HIERARCHY
ROOT Joint1
{
	OFFSET 0.000000 0.000000 0.000000
	CHANNELS 6 Xposition Yposition Zposition Xrotation Yrotation Zrotation
	JOINT Joint2
	{
		OFFSET -0.000000 0.000000 1.456275
		CHANNELS 6 Xposition Yposition Zposition Xrotation Yrotation Zrotation
		JOINT Joint3
		{
			OFFSET -0.000000 0.000002 1.471446
			CHANNELS 6 Xposition Yposition Zposition Xrotation Yrotation Zrotation
			JOINT Joint4
			{
				OFFSET 0.625745 0.000000 0.917755
				CHANNELS 6 Xposition Yposition Zposition Xrotation Yrotation Zrotation
				JOINT Joint5
				{
					OFFSET -0.629534 0.000001 0.940221
					CHANNELS 6 Xposition Yposition Zposition Xrotation Yrotation Zrotation
					JOINT Joint6
					{
						OFFSET -0.000001 0.113772 1.960660
						CHANNELS 6 Xposition Yposition Zposition Xrotation Yrotation Zrotation
						JOINT Joint7
						{
							OFFSET -0.669733 -0.113771 0.388340
							CHANNELS 6 Xposition Yposition Zposition Xrotation Yrotation Zrotation
							End Site
							{
								OFFSET 0.005509 0.005509 0.438980
							}
						}
					}
				}
			}
		}
	}
}
MOTION
Frames: 22
Frame Time: 0.041667
0.000000 0.000000 0.000000 -0.000000 1.019410 0.013724 -0.000000 0.000000 1.456275 -0.000000 -44.960321 0.000000 -0.000000 0.000002 1.471446 0.000000 -1.133460 0.012011 0.625744 0.000000 0.917755 0.000004 135.005779 -0.000001 -0.629534 0.000001 0.940221 -0.000000 1.709737 0.021057 -0.000001 0.113772 1.960661 -88.316532 89.984799 -0.008292 -0.669733 -0.113771 0.388340 -0.704686 3.566197 134.936848 
0.000000 0.000000 0.000000 -0.000000 1.019410 0.068867 -0.000000 0.000000 1.456275 -0.000000 -44.896029 0.000000 -0.000000 0.000002 1.471446 -0.000000 -1.133454 0.112455 0.625745 0.000000 0.917755 0.000004 134.994236 -0.000001 -0.629534 0.000001 0.940221 0.000000 1.709737 0.119746 -0.000001 0.113772 1.960660 -88.298404 90.034167 0.003512 -0.669733 -0.113771 0.388340 -0.702826 3.566194 134.832114 
0.000000 0.000000 0.000000 -0.000000 1.019410 0.164031 -0.000000 0.000000 1.456275 -0.000000 -44.785079 0.000000 -0.000000 0.000002 1.471446 -0.000000 -1.133460 0.285800 0.625744 0.000000 0.917755 0.000004 134.974319 -0.000001 -0.629534 0.000001 0.940221 -0.000000 1.709737 0.290063 -0.000001 0.113772 1.960660 -88.302359 90.119367 0.001037 -0.669733 -0.113771 0.388340 -0.699614 3.566179 134.651306 
0.000000 0.000000 0.000000 -0.000000 1.019410 0.301886 -0.000000 0.000000 1.456275 0.000000 -44.624348 0.000000 -0.000000 0.000002 1.471446 -0.000000 -1.133462 0.536907 0.625744 0.000000 0.917755 0.000004 134.945454 -0.000001 -0.629533 0.000001 0.940221 0.000000 1.709737 0.536783 -0.000000 0.113772 1.960660 -88.303124 90.242782 0.000515 -0.669733 -0.113771 0.388339 -0.694963 3.566140 134.389381 
0.000000 0.000000 0.000000 -0.000000 1.019410 0.485098 -0.000000 0.000000 1.456275 0.000000 -44.410747 0.000000 -0.000000 0.000002 1.471446 0.000000 -1.133461 0.870633 0.625744 0.000000 0.917755 0.000004 134.907096 -0.000001 -0.629534 0.000001 0.940221 -0.000000 1.709737 0.864681 -0.000001 0.113772 1.960660 -88.303418 90.406795 0.000302 -0.669733 -0.113771 0.388340 -0.688781 3.566055 134.041315 
0.000000 0.000000 0.000000 -0.000000 1.019410 0.716336 -0.000000 0.000000 1.456275 -0.000000 -44.141139 -0.000000 -0.000000 0.000002 1.471446 0.000000 -1.133455 1.291840 0.625744 0.000000 0.917755 0.000004 134.858684 -0.000001 -0.629534 0.000001 0.940221 0.000000 1.709737 1.278529 -0.000001 0.113772 1.960661 -88.303582 90.613818 0.000243 -0.669733 -0.113771 0.388340 -0.680979 3.565896 133.601997 
0.000000 0.000000 0.000000 -0.000000 1.019410 0.998268 -0.000000 -0.000000 1.456275 0.000000 -43.812436 -0.000000 -0.000000 0.000002 1.471446 0.000000 -1.133458 1.805388 0.625745 0.000000 0.917755 0.000004 134.799671 -0.000001 -0.629534 0.000001 0.940221 0.000000 1.709736 1.783105 -0.000000 0.113772 1.960660 -88.303698 90.866214 0.000140 -0.669733 -0.113771 0.388341 -0.671469 3.565620 133.066360 
0.000000 0.000000 0.000000 -0.000000 1.019410 1.333560 -0.000000 -0.000000 1.456275 -0.000000 -43.421514 -0.000000 -0.000000 0.000002 1.471446 -0.000000 -1.133463 2.416133 0.625744 0.000000 0.917755 0.000004 134.729484 -0.000001 -0.629533 0.000001 0.940221 -0.000000 1.709736 2.383181 -0.000001 0.113772 1.960660 -88.303718 91.166387 0.000098 -0.669733 -0.113771 0.388340 -0.660163 3.565176 132.429336 
0.000000 0.000000 0.000000 -0.000000 1.019410 1.724882 -0.000000 0.000000 1.456275 -0.000000 -42.965274 -0.000000 -0.000000 0.000002 1.471446 -0.000000 -1.133460 3.128936 0.625745 0.000000 0.917755 0.000003 134.647549 -0.000000 -0.629534 0.000001 0.940221 0.000000 1.709736 3.083533 -0.000001 0.113772 1.960661 -88.303759 91.516721 0.000074 -0.669733 -0.113771 0.388340 -0.646975 3.564499 131.685883 
0.000000 0.000000 0.000000 -0.000000 1.019410 2.174900 -0.000000 0.000000 1.456275 -0.000000 -42.440593 0.000000 -0.000000 0.000002 1.471446 0.000000 -1.133460 3.948657 0.625745 0.000000 0.917755 0.000004 134.553347 -0.000002 -0.629534 0.000001 0.940221 -0.000001 1.709736 3.888935 0.000000 0.113772 1.960661 -88.303773 91.919600 0.000057 -0.669733 -0.113771 0.388340 -0.631822 3.563510 130.830921 
0.000000 0.000000 0.000000 -0.000000 1.019410 2.682198 -0.000000 0.000000 1.456275 0.000000 -41.849136 0.000000 -0.000000 0.000002 1.471446 0.000000 -1.133460 4.872716 0.625744 0.000000 0.917755 0.000003 134.447151 -0.000001 -0.629534 0.000001 0.940221 -0.000000 1.709736 4.796851 -0.000001 0.113772 1.960661 -88.303814 92.373766 0.000044 -0.669733 -0.113771 0.388339 -0.614759 3.562125 129.867127 
0.000000 0.000000 0.000000 -0.000000 1.019410 3.229018 -0.000000 0.000000 1.456275 -0.000000 -41.211603 -0.000000 -0.000000 0.000002 1.471446 0.000000 -1.133459 5.868766 0.625744 0.000000 0.917755 0.000002 134.332677 -0.000001 -0.629534 0.000001 0.940221 0.000001 1.709736 5.775503 -0.000001 0.113772 1.960661 -88.303821 92.863307 0.000034 -0.669733 -0.113771 0.388340 -0.596397 3.560311 128.828255 
0.000000 0.000000 0.000000 -0.000000 1.019410 3.793522 -0.000000 0.000000 1.456275 0.000000 -40.553449 0.000000 -0.000000 0.000002 1.471446 0.000000 -1.133459 6.897024 0.625744 0.000000 0.917754 0.000002 134.214515 -0.000001 -0.629534 0.000001 0.940221 -0.000001 1.709736 6.785796 -0.000001 0.113772 1.960661 -88.303827 93.368686 0.000038 -0.669733 -0.113771 0.388340 -0.577478 3.558091 127.755792 
0.000000 0.000000 0.000000 -0.000000 1.019410 4.353864 -0.000000 0.000000 1.456275 -0.000000 -39.900138 -0.000000 -0.000000 0.000002 1.471445 0.000000 -1.133456 7.917704 0.625744 0.000000 0.917755 0.000003 134.097200 -0.000000 -0.629533 0.000001 0.940221 0.000000 1.709736 7.788649 -0.000001 0.113772 1.960660 -88.303841 93.870329 0.000027 -0.669733 -0.113771 0.388340 -0.558742 3.555537 126.691212 
0.000000 0.000000 0.000000 -0.000000 1.019410 4.894706 -0.000000 -0.000000 1.456275 -0.000000 -39.269565 -0.000000 -0.000000 0.000002 1.471446 -0.000000 -1.133456 8.902866 0.625744 0.000000 0.917755 0.000003 133.983969 -0.000000 -0.629533 0.000001 0.940221 0.000000 1.709736 8.756600 -0.000000 0.113772 1.960660 -88.303841 94.354521 0.000027 -0.669733 -0.113771 0.388339 -0.540708 3.552743 125.663705 
0.000000 0.000000 0.000000 -0.000000 1.019410 5.426707 -0.000000 0.000000 1.456275 -0.000000 -38.649308 -0.000000 -0.000000 0.000002 1.471446 -0.000000 -1.133458 9.871922 0.625745 0.000000 0.917755 0.000003 133.872609 -0.000002 -0.629534 0.000001 0.940221 -0.000000 1.709736 9.708728 -0.000001 0.113772 1.960660 -88.303834 94.830790 0.000039 -0.669733 -0.113771 0.388341 -0.523019 3.549680 124.653001 
0.000000 0.000000 0.000000 -0.000000 1.019410 5.967027 -0.000000 -0.000000 1.456275 0.000000 -38.019343 0.000000 -0.000000 0.000002 1.471445 0.000001 -1.133460 10.856133 0.625744 0.000000 0.917755 0.000003 133.759501 0.000002 -0.629534 0.000001 0.940221 0.000001 1.709737 10.675744 -0.000001 0.113772 1.960661 -88.303841 95.314511 0.000018 -0.669733 -0.113771 0.388340 -0.505113 3.546252 123.626479 
0.000000 0.000000 0.000000 -0.000000 1.019410 6.532827 -0.000000 0.000000 1.456275 0.000001 -37.359673 0.000000 -0.000000 0.000002 1.471446 0.000001 -1.133456 11.886754 0.625744 0.000000 0.917754 0.000006 133.641039 0.000001 -0.629533 0.000001 0.940221 0.000001 1.709736 11.688363 -0.000001 0.113772 1.960660 -88.303841 95.821052 0.000026 -0.669733 -0.113771 0.388340 -0.486432 3.542319 122.551571 
0.000000 0.000000 0.000000 -0.000000 1.019410 7.147086 -0.000000 0.000000 1.456275 0.000000 -36.643507 -0.000000 -0.000001 0.000002 1.471445 0.000001 -1.133459 13.005642 0.625745 0.000000 0.917755 0.000003 133.512440 -0.000003 -0.629533 0.000001 0.940221 -0.000001 1.709736 12.787706 -0.000001 0.113772 1.960661 -88.303841 96.370964 0.000010 -0.669733 -0.113771 0.388339 -0.466237 3.537654 121.384619 
0.000000 0.000000 0.000000 -0.000000 1.019410 7.856049 -0.000000 0.000000 1.456275 0.000001 -35.816931 0.000000 -0.000001 0.000002 1.471446 0.000000 -1.133459 14.297046 0.625745 0.000000 0.917754 0.000001 133.364020 -0.000002 -0.629533 0.000001 0.940221 -0.000001 1.709737 14.056547 -0.000001 0.113772 1.960660 -88.303855 97.005673 0.000026 -0.669733 -0.113771 0.388339 -0.443055 3.531761 120.037733 
0.000000 0.000000 0.000000 -0.000000 1.019410 8.711791 -0.000000 0.000000 1.456275 0.000001 -34.819218 0.000001 -0.000001 0.000002 1.471445 0.000000 -1.133457 15.855801 0.625745 0.000000 0.917755 0.000002 133.184878 -0.000005 -0.629534 0.000001 0.940221 -0.000001 1.709736 15.588073 -0.000000 0.113772 1.960661 -88.303848 97.771781 0.000012 -0.669733 -0.113771 0.388340 -0.415269 3.523924 118.412012 
0.000000 0.000000 0.000000 -0.000000 1.019410 9.743738 -0.000000 -0.000000 1.456275 0.000000 -33.616060 -0.000001 -0.000000 0.000002 1.471446 -0.000000 -1.133455 17.735522 0.625744 0.000000 0.917755 0.000002 132.968839 0.000002 -0.629534 0.000001 0.940221 0.000001 1.709736 17.434959 -0.000001 0.113772 1.960661 -88.303855 98.695632 0.000010 -0.669733 -0.113771 0.388340 -0.382071 3.513434 116.451611 
